<!DOCTYPE svg PUBLIC "-//W3C//DTD SVG 20010904//EN" "http://www.w3.org/TR/2001/REC-SVG-20010904/DTD/svg10.dtd">
<svg version="1.0" xmlns="http://www.w3.org/2000/svg" width="83px" height="83px" viewBox="0 0 830 830" preserveAspectRatio="xMidYMid meet">
<g id="layer101" fill="#030302" stroke="none">
 <path d="M0 415 l0 -415 415 0 415 0 0 415 0 415 -415 0 -415 0 0 -415z"/>
 </g>
<g id="layer102" fill="#212219" stroke="none">
 <path d="M0 415 l0 -415 415 0 415 0 0 415 0 415 -415 0 -415 0 0 -415z m114 359 c3 -8 11 -14 18 -14 7 0 24 -17 38 -38 14 -20 44 -63 68 -95 l44 -57 30 17 c16 10 48 42 69 72 21 30 39 50 39 45 0 -5 -17 -33 -37 -63 -21 -30 -45 -66 -54 -80 -8 -14 -24 -30 -35 -36 -11 -5 -44 -26 -74 -46 -30 -20 -71 -41 -90 -47 l-35 -12 25 21 c14 11 53 38 87 59 35 22 63 44 63 50 0 5 -30 40 -66 77 -37 39 -68 80 -71 96 -4 17 -11 26 -18 23 -20 -7 -49 19 -42 37 7 19 33 13 41 -9z m544 -31 c4 -30 -49 -133 -119 -230 -76 -105 -80 -146 -12 -118 20 8 58 15 86 15 45 0 53 -4 92 -43 26 -26 50 -64 64 -102 20 -53 21 -64 10 -99 -25 -76 -79 -116 -154 -116 -51 0 -97 22 -149 72 -65 60 -71 95 -41 220 10 38 -23 46 -72 16 -41 -25 -70 -39 -121 -58 -21 -8 -29 -16 -22 -20 7 -5 -1 -12 -21 -19 -41 -14 -42 -14 -32 4 5 8 41 30 79 49 91 43 159 106 151 139 -6 21 -3 23 26 20 28 -3 37 4 75 50 42 51 112 178 125 226 7 28 31 24 35 -6z m-508 -492 c0 -4 -11 -13 -25 -19 -14 -6 -25 -10 -25 -8 0 3 -3 11 -6 19 -3 10 1 17 13 19 21 5 43 -1 43 -11z"/>
 <path d="M455 389 c-10 -15 3 -25 16 -12 7 7 7 13 1 17 -6 3 -14 1 -17 -5z"/>
 <path d="M472 318 c-17 -17 -15 -100 2 -124 20 -27 31 -10 16 25 -7 18 -9 45 -5 70 7 44 6 48 -13 29z"/>
 </g>
<g id="layer103" fill="#21201c" stroke="none">
 <path d="M0 415 l0 -415 415 0 415 0 0 415 0 415 -415 0 -415 0 0 -415z m126 357 c17 -15 57 -64 89 -109 32 -46 64 -83 71 -83 19 0 80 56 105 96 12 19 24 33 26 30 5 -5 -13 -34 -79 -134 -16 -23 -46 -51 -67 -62 -22 -11 -42 -24 -46 -30 -5 -9 -108 -60 -120 -60 -20 0 5 23 60 55 35 21 74 48 85 60 l21 22 -55 57 c-30 31 -59 56 -64 56 -4 0 -14 16 -21 36 -7 19 -15 33 -19 30 -9 -10 -42 26 -42 46 0 25 20 22 56 -10z m538 -17 c8 -23 -66 -169 -129 -253 -70 -93 -72 -138 -4 -101 11 5 42 11 69 11 65 2 111 -30 149 -102 38 -73 44 -105 30 -149 -44 -136 -225 -153 -319 -30 -56 74 -62 108 -34 179 13 32 14 43 4 55 -17 20 -26 19 -63 -7 -42 -30 -68 -43 -100 -52 -15 -3 -26 -11 -24 -17 2 -11 -125 -69 -150 -69 -15 0 -10 29 8 41 8 5 26 9 42 9 15 0 27 4 27 8 0 4 17 14 37 21 50 17 153 86 177 118 16 21 17 28 6 49 -15 27 -4 48 11 21 15 -26 26 -21 81 31 53 50 109 141 129 210 13 43 41 58 53 27z"/>
 <path d="M450 380 c0 -5 5 -10 10 -10 6 0 10 5 10 10 0 6 -4 10 -10 10 -5 0 -10 -4 -10 -10z"/>
 <path d="M471 316 c-8 -9 -11 -19 -7 -23 9 -9 29 13 24 27 -2 8 -8 7 -17 -4z"/>
 <path d="M466 240 c3 -19 10 -39 15 -44 17 -19 16 0 -2 39 l-19 40 6 -35z"/>
 </g>
<g id="layer104" fill="#32332c" stroke="none">
 <path d="M0 415 l0 -415 415 0 415 0 0 415 0 415 -415 0 -415 0 0 -415z m119 364 c15 -11 57 -61 92 -110 34 -49 69 -89 76 -89 18 0 79 56 104 96 12 19 24 33 26 30 5 -5 -13 -34 -79 -134 -16 -23 -46 -51 -67 -62 -22 -11 -43 -24 -46 -30 -7 -11 -68 -44 -102 -54 -45 -14 -22 12 45 52 37 22 75 49 85 60 18 20 18 21 -39 76 -32 31 -61 56 -64 56 -3 0 -12 16 -19 36 -7 19 -15 33 -19 30 -9 -10 -42 26 -42 46 0 24 14 23 49 -3z m545 -25 c9 -23 -65 -166 -129 -252 -63 -83 -72 -118 -27 -108 99 24 114 25 145 12 87 -37 152 -163 126 -245 -44 -136 -225 -153 -319 -30 -56 74 -62 108 -34 180 15 37 15 42 1 56 -14 15 -18 15 -41 0 -48 -32 -91 -54 -118 -61 -16 -3 -27 -11 -25 -17 2 -11 -125 -69 -150 -69 -23 0 -5 35 23 44 98 30 181 74 237 126 50 46 51 48 38 74 -16 29 -5 52 10 23 14 -25 26 -21 71 21 54 50 114 143 135 208 17 55 44 73 57 38z"/>
 <path d="M450 380 c0 -5 5 -10 10 -10 6 0 10 5 10 10 0 6 -4 10 -10 10 -5 0 -10 -4 -10 -10z"/>
 <path d="M465 309 c-4 -6 -5 -13 -2 -16 7 -7 27 6 27 18 0 12 -17 12 -25 -2z"/>
 <path d="M466 240 c3 -19 10 -39 15 -44 17 -19 16 0 -2 39 l-19 40 6 -35z"/>
 </g>
<g id="layer105" fill="#424439" stroke="none">
 <path d="M0 415 l0 -415 415 0 415 0 0 415 0 415 -415 0 -415 0 0 -415z m136 347 c21 -21 62 -70 89 -110 28 -39 56 -71 64 -71 14 -1 68 51 109 104 42 55 14 -6 -41 -87 -29 -43 -61 -80 -72 -84 -11 -4 -40 -21 -66 -39 -55 -38 -107 -60 -117 -51 -8 9 30 40 84 66 22 11 51 31 63 44 l22 24 -56 53 c-31 30 -61 56 -66 57 -5 2 -9 10 -9 17 0 7 -18 30 -39 50 -37 35 -45 65 -17 65 7 0 30 -17 52 -38z m532 -19 c4 -25 -72 -163 -134 -245 -46 -59 -61 -104 -34 -101 8 1 40 7 71 13 49 11 61 10 94 -6 75 -35 137 -164 116 -241 -20 -72 -104 -127 -177 -116 -56 8 -106 39 -150 92 -37 44 -39 49 -38 113 0 40 6 73 14 83 11 13 11 19 -3 32 -14 15 -20 13 -65 -15 -26 -18 -63 -37 -80 -43 -17 -6 -30 -15 -29 -20 2 -10 -136 -69 -160 -69 -7 0 -13 6 -13 13 0 19 21 37 44 37 35 0 182 78 231 122 45 41 46 44 34 71 -14 30 -3 52 12 24 6 -9 16 -17 22 -17 19 0 118 109 133 146 8 18 18 35 23 39 6 3 18 30 28 61 14 45 21 54 37 52 13 -2 22 -12 24 -25z"/>
 <path d="M453 383 c4 -3 10 -3 14 0 3 4 0 7 -7 7 -7 0 -10 -3 -7 -7z"/>
 <path d="M470 304 c0 -8 5 -12 10 -9 6 3 10 10 10 16 0 5 -4 9 -10 9 -5 0 -10 -7 -10 -16z"/>
 <path d="M470 223 c0 -12 5 -25 10 -28 13 -8 13 15 0 35 -8 12 -10 11 -10 -7z"/>
 </g>
<g id="layer106" fill="#52534c" stroke="none">
 <path d="M0 415 l0 -415 415 0 415 0 0 415 0 415 -415 0 -415 0 0 -415z m129 358 c23 -15 41 -31 41 -36 0 -11 108 -157 116 -157 17 0 62 41 97 89 22 30 43 49 45 42 2 -6 -3 -20 -12 -30 -9 -10 -16 -21 -16 -25 0 -4 -16 -27 -36 -52 -21 -25 -34 -50 -30 -59 3 -8 2 -14 -2 -13 -12 3 -65 -24 -112 -57 -51 -36 -108 -61 -117 -51 -9 8 26 44 51 52 20 7 63 34 99 63 17 14 13 19 -53 83 -38 37 -70 71 -70 76 0 5 -16 23 -35 41 -35 32 -41 42 -28 54 10 11 19 8 62 -20z m539 -27 c6 -27 -52 -136 -120 -228 -86 -118 -87 -138 -2 -112 115 35 195 -21 233 -163 16 -60 1 -109 -48 -157 -37 -36 -43 -38 -106 -40 -52 -2 -73 2 -90 16 -13 10 -27 18 -32 18 -4 1 -26 24 -47 52 -34 43 -41 60 -44 110 -3 43 0 64 13 84 16 24 16 26 -2 39 -16 12 -22 10 -50 -11 -17 -13 -36 -24 -41 -24 -5 0 -28 -13 -50 -30 -23 -16 -44 -30 -47 -30 -3 0 -24 -9 -48 -19 -23 -11 -59 -24 -80 -30 -36 -9 -38 -9 -31 12 8 26 22 37 47 37 9 0 25 4 35 9 9 6 48 24 85 41 39 17 87 49 113 75 l45 45 -18 30 c-21 37 -8 53 17 21 l18 -24 42 33 c55 43 150 196 150 240 0 9 3 20 7 24 13 13 48 1 51 -18z"/>
 <path d="M453 383 c4 -3 10 -3 14 0 3 4 0 7 -7 7 -7 0 -10 -3 -7 -7z"/>
 <path d="M470 309 c0 -5 5 -7 10 -4 6 3 10 8 10 11 0 2 -4 4 -10 4 -5 0 -10 -5 -10 -11z"/>
 <path d="M470 218 c0 -9 5 -20 10 -23 13 -8 13 5 0 25 -8 13 -10 13 -10 -2z"/>
 </g>
<g id="layer107" fill="#626358" stroke="none">
 <path d="M0 415 l0 -415 415 0 415 0 0 415 0 415 -415 0 -415 0 0 -415z m110 374 c0 -4 12 -14 26 -21 15 -7 35 -28 45 -47 10 -19 32 -50 49 -69 16 -18 30 -37 30 -41 0 -4 5 -12 11 -18 18 -18 70 19 107 77 32 49 52 63 52 36 0 -7 -7 -19 -15 -26 -8 -7 -15 -17 -15 -23 0 -5 -16 -30 -36 -54 -20 -24 -33 -50 -30 -58 3 -8 2 -14 -2 -13 -8 3 -88 -42 -137 -76 -38 -26 -94 -46 -100 -36 -5 9 51 60 65 60 14 0 84 50 93 65 5 10 -13 35 -58 79 -36 36 -65 70 -65 75 0 5 -16 21 -35 37 -37 29 -42 43 -24 61 12 12 39 7 39 -8z m548 -21 c7 -7 12 -19 12 -28 0 -28 -61 -141 -115 -215 -69 -93 -80 -114 -66 -128 7 -7 14 -7 24 2 8 6 44 14 79 18 64 6 66 5 105 -30 43 -39 78 -102 87 -156 13 -75 -33 -159 -98 -181 -41 -13 -134 -5 -155 15 -10 8 -22 15 -27 15 -5 1 -28 25 -51 54 -40 49 -43 58 -43 112 0 38 6 68 16 82 15 22 15 24 -2 37 -16 11 -23 10 -46 -6 -15 -11 -30 -24 -33 -29 -4 -6 -15 -10 -26 -10 -10 0 -24 -9 -31 -20 -7 -11 -16 -20 -20 -20 -4 0 -36 -13 -70 -29 -76 -34 -143 -49 -134 -29 3 7 9 21 12 31 4 10 16 17 30 17 13 0 32 4 42 9 9 5 28 13 42 19 76 30 130 62 168 100 l43 42 -18 30 c-21 36 -8 54 16 21 l18 -24 32 24 c59 43 125 144 157 241 16 48 30 58 52 36z"/>
 <path d="M470 210 c0 -5 5 -10 11 -10 5 0 7 5 4 10 -3 6 -8 10 -11 10 -2 0 -4 -4 -4 -10z"/>
 </g>
<g id="layer108" fill="#808276" stroke="none">
 <path d="M0 415 l0 -415 415 0 415 0 0 415 0 415 -415 0 -415 0 0 -415z m126 369 c18 -14 44 -43 56 -63 12 -20 35 -52 52 -72 17 -19 36 -43 41 -53 9 -15 14 -14 48 15 21 17 49 49 63 70 24 39 44 50 44 26 0 -7 -23 -45 -51 -85 -27 -40 -48 -76 -45 -81 3 -4 -13 -17 -36 -27 -24 -10 -55 -30 -70 -43 -34 -28 -125 -64 -132 -52 -7 11 28 42 84 73 91 52 91 49 -21 168 -106 113 -118 137 -71 149 2 1 19 -11 38 -25z m542 -36 c4 -36 -55 -154 -124 -245 -30 -40 -54 -82 -54 -93 0 -24 0 -24 36 -5 16 8 53 15 81 15 47 0 58 -4 94 -37 58 -52 81 -104 82 -180 1 -48 -4 -70 -19 -90 -36 -48 -70 -66 -133 -71 -73 -5 -115 16 -179 90 -43 50 -44 51 -39 117 2 36 7 76 11 87 13 37 -18 34 -84 -9 -87 -58 -88 -58 -188 -97 -54 -20 -112 -27 -112 -12 0 17 47 48 100 66 93 31 160 66 201 106 35 33 38 41 33 71 -4 19 -11 40 -17 47 -19 25 1 22 32 -4 29 -24 34 -26 57 -13 47 25 129 147 158 237 15 44 22 53 39 50 15 -2 23 -11 25 -30z"/>
 </g>
<g id="layer109" fill="#e3e4dd" stroke="none">
 <path d="M0 415 l0 -415 415 0 415 0 0 415 0 415 -415 0 -415 0 0 -415z m212 268 c77 -105 90 -106 155 -23 45 58 63 72 63 49 0 -14 -36 -75 -67 -112 -13 -16 -23 -37 -23 -48 0 -10 -4 -19 -10 -19 -5 0 -10 -6 -10 -14 0 -9 -7 -12 -18 -10 -9 3 -33 -6 -52 -20 -40 -30 -106 -63 -134 -68 -42 -7 -23 23 36 57 35 20 73 46 85 57 l22 21 -99 106 c-63 67 -100 114 -100 128 0 59 63 16 152 -104z m456 65 c4 -36 -55 -154 -124 -245 -59 -79 -69 -110 -31 -98 12 4 50 9 83 12 60 5 63 4 103 -33 60 -53 83 -105 84 -181 1 -68 -13 -98 -66 -137 -36 -27 -133 -34 -174 -12 -41 21 -111 93 -128 132 -14 30 -10 87 10 150 11 35 -17 35 -74 -1 -29 -19 -60 -40 -69 -49 -41 -36 -242 -93 -242 -68 0 17 47 48 100 66 87 29 153 63 195 99 34 30 39 39 37 73 -2 21 -8 44 -14 51 -21 26 0 24 31 -3 29 -24 34 -26 57 -13 47 25 129 147 158 237 15 44 22 53 39 50 15 -2 23 -11 25 -30z"/>
 </g>
<g id="layer110" fill="#fefefe" stroke="none">
 <path d="M0 415 l0 -415 415 0 415 0 0 415 0 415 -372 -1 c-205 0 -367 -3 -360 -6 6 -2 12 -11 12 -19 0 -8 6 -14 12 -14 12 0 88 -79 88 -91 0 -3 20 -27 44 -54 46 -49 69 -54 84 -18 16 39 54 93 62 88 4 -3 11 2 14 11 3 8 10 13 15 10 17 -11 4 -53 -36 -112 -51 -76 -58 -94 -34 -94 9 0 28 -11 41 -25 l24 -25 29 27 c29 28 117 137 117 146 0 3 8 22 17 43 9 22 16 44 15 50 -3 14 17 31 42 36 15 2 21 -5 27 -31 6 -28 1 -47 -27 -102 -19 -37 -41 -72 -49 -79 -8 -7 -15 -18 -15 -25 0 -7 -11 -23 -24 -37 -12 -14 -26 -33 -29 -42 -4 -9 -11 -16 -17 -16 -5 0 -10 -11 -10 -25 0 -29 0 -29 37 -14 15 6 49 13 75 14 38 1 52 -3 69 -22 13 -12 28 -23 35 -23 7 0 25 -21 40 -46 23 -39 27 -59 29 -127 l2 -80 -46 -43 c-49 -47 -47 -46 -134 -46 -45 0 -66 5 -97 26 -22 14 -40 33 -40 40 0 8 -14 25 -31 39 -28 21 -31 29 -33 88 -2 35 1 75 6 87 4 13 6 28 3 32 -8 13 -48 -4 -80 -34 -32 -30 -171 -99 -183 -92 -5 3 -19 -1 -33 -8 -39 -20 -83 -15 -87 10 -3 19 33 47 63 49 6 0 15 4 21 7 6 4 37 17 70 29 32 12 75 33 94 46 19 12 40 23 46 23 6 0 17 11 24 25 12 22 10 28 -13 58 -33 44 -73 41 -127 -9 -31 -29 -102 -55 -120 -44 -28 18 7 50 100 90 38 16 65 57 50 75 -7 8 -18 15 -24 15 -14 0 -56 42 -56 55 0 4 -18 23 -40 42 -22 19 -40 41 -40 49 0 8 -6 14 -14 14 -19 0 -15 58 4 70 11 7 3 10 -27 10 l-43 0 0 -415z"/>
 </g>

</svg>