<?xml version="1.0" standalone="no"?>
<!DOCTYPE svg PUBLIC "-//W3C//DTD SVG 20010904//EN"
 "http://www.w3.org/TR/2001/REC-SVG-20010904/DTD/svg10.dtd">
<svg version="1.0" xmlns="http://www.w3.org/2000/svg"
 width="700.000000pt" height="700.000000pt" viewBox="0 0 700.000000 700.000000"
 preserveAspectRatio="xMidYMid meet">
<metadata>
Created by potrace 1.11, written by Peter Selinger 2001-2013
</metadata>
<g transform="translate(0.000000,700.000000) scale(0.100000,-0.100000)"
fill="#000000" stroke="none">
<path d="M4938 6639 c-121 -14 -266 -55 -363 -104 -156 -77 -365 -246 -590
-477 -225 -230 -397 -450 -471 -603 -55 -115 -60 -178 -40 -486 25 -381 50
-581 90 -724 47 -163 51 -201 29 -245 -33 -64 -110 -71 -243 -25 -164 57 -283
125 -620 353 -118 80 -260 176 -315 213 -329 219 -852 439 -1355 568 -443 113
-720 132 -720 48 0 -92 206 -260 495 -402 161 -79 200 -95 455 -185 795 -280
1350 -590 1685 -942 100 -104 170 -221 184 -306 22 -143 -63 -489 -154 -622
-47 -69 -63 -114 -46 -124 36 -22 156 45 342 192 152 121 274 189 298 169 9
-8 34 -19 56 -25 54 -15 165 -83 250 -152 283 -231 674 -778 946 -1320 107
-215 155 -328 249 -585 134 -370 174 -423 306 -412 156 12 233 123 221 316
-12 188 -148 533 -382 965 -190 351 -339 586 -631 991 -315 438 -436 633 -467
755 -15 55 -11 180 6 208 16 24 65 11 203 -57 127 -63 150 -71 247 -85 387
-58 768 -80 876 -51 141 37 254 119 507 370 217 214 314 341 414 537 142 280
200 559 200 958 0 427 -84 657 -325 894 -211 207 -388 305 -654 361 -193 40
-494 55 -683 34z"/>
<path d="M815 3467 c-29 -22 -12 -74 49 -149 84 -101 239 -216 506 -375 174
-103 452 -275 510 -315 46 -32 300 -280 300 -293 0 -9 -105 -126 -195 -219
-92 -95 -591 -630 -785 -841 -349 -381 -578 -665 -645 -799 -73 -145 -35 -229
131 -286 l57 -20 56 31 c143 81 349 267 554 499 134 153 171 200 283 365 104
155 266 370 361 480 163 191 234 282 323 419 59 91 83 100 157 62 27 -13 75
-45 105 -70 31 -25 66 -46 78 -46 46 0 130 -69 163 -135 8 -16 51 -68 94 -115
113 -121 234 -268 335 -406 131 -178 271 -314 323 -314 36 0 48 24 43 84 -5
65 -58 179 -154 333 -88 141 -345 524 -424 633 -64 88 -207 368 -216 423 -3
18 -7 42 -10 55 -7 36 -114 106 -324 212 -236 120 -311 163 -460 270 -453 323
-1102 599 -1215 517z"/>
</g>
</svg>
